<svg xmlns="http://www.w3.org/2000/svg" version="1.1" xmlns:xlink="http://www.w3.org/1999/xlink" xmlns:svgjs="http://svgjs.dev/svgjs" width="100%" height="100%" viewBox="0 0 1000 600"><rect width="1000" height="600" x="0" y="0" fill="#ec4d37"/><g><rect width="333.3333333333333" height="333.3333333333333" rx="13.333333333333334" ry="13.333333333333334" y="270.79853838479517" fill="#1d1b1b" transform="matrix(0.5028637204942011,0,0,0.5028637204942011,0,80.01462447276069)" x="248.5762939453125"/><path d="M415.1259108107328 512.4652005852923Q398.7096024819973 512.4652005852923 383.63937291105475 507.19793588088527Q368.56914334011213 501.93067117647814 360.3463578848988 493.2982095775887L360.3463578848988 493.2982095775887L366.4622374583493 481.3005510842169Q374.48018484172457 489.28923588590106 387.73613434781583 494.2346121917055Q401.0213464355982 499.2092510792011 415.1259108107328 499.2092510792011L415.1259108107328 499.2092510792011Q434.9366786156418 499.2092510792011 444.8566938089418 491.92286823810457Q454.7474464205508 484.66574797869924 454.7474464205508 473.0777656290036L454.7474464205508 473.0777656290036Q454.7474464205508 464.21120337658493 449.3631313893791 458.9439386721778Q444.0080789398985 453.67667396777074 436.19496962836126 450.8382035437291Q428.4111228985152 447.9997331196875 414.5113965952186 444.6345362252052L414.5113965952186 444.6345362252052Q397.8609876129539 440.42072446167947 387.97023500134503 436.52880109675647Q378.050219808045 432.6076151501423 370.9979376204776 424.61893034845815Q363.94565543291037 416.6009829650829 363.94565543291037 402.9060947336244L363.94565543291037 402.9060947336244Q363.94565543291037 391.75705110929596 369.82743435283163 382.56860045827466Q375.73847585444406 373.40941238894453 387.97023500134503 367.9373096126994Q400.17273156655483 362.4652068364542 418.28626963337706 362.4652068364542L418.28626963337706 362.4652068364542Q430.92770492395414 362.4652068364542 443.04241374409054 365.9474540577011Q455.1571225642269 369.4004386972569 464.0236848166455 375.5163182707074L464.0236848166455 375.5163182707074L458.7564201122384 387.9529154894464Q449.48018171614365 381.8370359159959 438.9456523073294 378.7937274201163Q428.4111228985152 375.72115634254544 418.28626963337706 375.72115634254544L418.28626963337706 375.72115634254544Q398.91444055383533 375.72115634254544 389.1114756872999 383.21237725547996Q379.3085108207644 390.7035981684146 379.3085108207644 402.4964185899483L379.3085108207644 402.4964185899483Q379.3085108207644 411.33371826067577 384.69282585193616 416.71803329184746Q390.07714088310786 422.07308574132804 398.1828760115566 424.9408187470608Q406.2886111400053 427.7792891711024 419.98349937146384 431.1444860655847L419.98349937146384 431.1444860655847Q436.19496962836126 435.1534597572724 446.2027725667348 439.0453831221954Q456.2105755051083 442.9373064871184 463.17506994760214 450.8382035437291Q470.139564390096 458.7391006003398 470.139564390096 472.2291507599602L470.139564390096 472.2291507599602Q470.139564390096 483.40745696597975 464.111472561719 492.56664503530993Q458.1126433150331 501.72583310464006 445.6760460962941 507.1101481358118Q433.2687114592462 512.4652005852923 415.1259108107328 512.4652005852923L415.1259108107328 512.4652005852923Z " fill="#ec4d37" transform="matrix(0.5028637204942011,0,0,0.5028637204942011,0,80.01462447276069)"/><path d="M717.3878088058402 512.4652082576381Q701.76106741597 512.4652082576381 687.4156631097611 507.4512805389632Q673.0702588035522 502.43735282028825 665.2429605316207 494.2200823924598L665.2429605316207 494.2200823924598L671.0646877160822 482.79946925547796Q678.6969999100652 490.40392629546835 691.3153846687305 495.1114473202243Q703.9616245813884 499.8468234989728 717.3878088058402 499.8468234989728L717.3878088058402 499.8468234989728Q736.2457480588566 499.8468234989728 745.6886452623612 492.9108901548058Q755.103687311873 486.00281196463146 755.103687311873 474.9721709835465L755.103687311873 474.9721709835465Q755.103687311873 466.532059323777 749.9783389772275 461.51813160510204Q744.8808457965747 456.5042038864271 737.4435196805401 453.8022539491412Q730.0340487184983 451.1003040118552 716.8028505719949 447.89696130270175L716.8028505719949 447.89696130270175Q700.9532679501835 443.88581912776175 691.5382259006716 440.18108364674083Q682.0953286971671 436.44849301172724 675.3822365849412 428.8440359717369Q668.6691444727153 421.2117237777539 668.6691444727153 408.17551170919904L668.6691444727153 408.17551170919904Q668.6691444727153 397.5626980380037 674.2680304252356 388.8161796843151Q679.8947715317486 380.09751648461923 691.5382259006716 374.8886026879958Q703.1538251156019 369.6796888913724 720.3961654370453 369.6796888913724L720.3961654370453 369.6796888913724Q732.4295919618652 369.6796888913724 743.9616257148175 372.99445221649637Q755.4936594677699 376.2813603876277 763.9337711275396 382.10308757208924L763.9337711275396 382.10308757208924L758.9198434088646 393.94152801896064Q750.0897595931981 388.1198008344992 740.0619041558482 385.2228648192647Q730.0340487184983 382.29807365003774 720.3961654370453 382.29807365003774L720.3961654370453 382.29807365003774Q701.9560534939185 382.29807365003774 692.6245769063845 389.42899307215316Q683.2931003188505 396.5599124942687 683.2931003188505 407.78553955330204L683.2931003188505 407.78553955330204Q683.2931003188505 416.19779605907894 688.4184486534961 421.3231443937245Q693.5437969881416 426.42063757437734 701.2596746441025 429.15044266565593Q708.9755523000633 431.85239260294185 722.0117643686183 435.05573531209535L722.0117643686183 435.05573531209535Q737.4435196805401 438.8718914090868 746.9699823460226 442.5766268901078Q756.496445011505 446.2813623711287 763.125971661753 453.8022539491412Q769.755498312001 461.3231455271536 769.755498312001 474.16437151776L769.755498312001 474.16437151776Q769.755498312001 484.80504034294796 764.0173365895175 493.5237035426439Q758.3070300210265 502.24236674233975 746.468589574155 507.3677150769853Q734.6580042812762 512.4652082576381 717.3878088058402 512.4652082576381L717.3878088058402 512.4652082576381ZM852.7638572100641 404.9721690000456Q872.6245820068157 404.9721690000456 884.3516018377165 416.50420275299797Q896.1064768226099 428.0362365059504 896.1064768226099 450.0975184681202L896.1064768226099 450.0975184681202L896.1064768226099 511.26743663595465L881.8446379783791 511.26743663595465L881.8446379783791 451.49027616775214Q881.8446379783791 435.05573531209535 873.6273675505506 426.42063757437734Q865.4100971227222 417.813394990652 850.1733278887489 417.813394990652L850.1733278887489 417.813394990652Q833.1259736452539 417.813394990652 823.181683669882 427.9248158899798Q813.2652488485026 438.0640919433003 813.2652488485026 455.91924565258165L813.2652488485026 455.91924565258165L813.2652488485026 511.26743663595465L799.0312651582642 511.26743663595465L799.0312651582642 362.465204007279L813.2652488485026 362.465204007279L813.2652488485026 424.2200804089589Q819.086976032964 415.0000244373955 829.3098175482623 409.98609671872055Q839.5326590635609 404.9721690000456 852.7638572100641 404.9721690000456L852.7638572100641 404.9721690000456ZM934.7972857183852 511.26743663595465L934.7972857183852 405.7799684658321L949.0312694086235 405.7799684658321L949.0312694086235 511.26743663595465L934.7972857183852 511.26743663595465ZM942.0117706024785 382.7159009599273Q937.6106562716416 382.7159009599273 934.6022996404365 379.7075443287223Q931.5939430092317 376.69918769751735 931.5939430092317 372.4930594446289L931.5939430092317 372.4930594446289Q931.5939430092317 368.4819172696889 934.6022996404365 365.47356063848395Q937.6106562716416 362.465204007279 942.0117706024785 362.465204007279L942.0117706024785 362.465204007279Q946.4407400873081 362.465204007279 949.4490967185129 365.36214002251336Q952.457453349718 368.25907603774783 952.457453349718 372.2702182126878L952.457453349718 372.2702182126878Q952.457453349718 376.69918769751735 949.4490967185129 379.7075443287223Q946.4407400873081 382.7159009599273 942.0117706024785 382.7159009599273L942.0117706024785 382.7159009599273ZM1063.3488213944124 405.7799684658321L1077.3878190067023 405.7799684658321L1030.4797396830988 511.26743663595465L1015.8279286829709 511.26743663595465L969.0869802833233 405.7799684658321L983.9337773613997 405.7799684658321L1023.460240876954 495.61284009209174L1063.3488213944124 405.7799684658321ZM1131.148266212495 404.9721690000456Q1151.8167904750328 404.9721690000456 1162.8474314561179 415.30643113131447Q1173.8780724372027 425.64069326258345 1173.8780724372027 445.89139021523175L1173.8780724372027 445.89139021523175L1173.8780724372027 511.26743663595465L1160.22904698081 511.26743663595465L1160.22904698081 494.83289578029786Q1155.4101053400832 503.0501662081263 1146.0786287525493 507.64626661691165Q1136.775007319008 512.2702221796897 1123.9337813284017 512.2702221796897L1123.9337813284017 512.2702221796897Q1106.2736136970686 512.2702221796897 1095.8557861038219 503.8579656739128Q1085.4101033565823 495.4178540141433 1085.4101033565823 481.5738424798019L1085.4101033565823 481.5738424798019Q1085.4101033565823 468.14765825535 1095.1594072540058 459.93038782752166Q1104.8808559974368 451.71311739969326 1126.13433849382 451.71311739969326L1126.13433849382 451.71311739969326L1159.6162335929719 451.71311739969326L1159.6162335929719 445.2785768273937Q1159.6162335929719 431.6574065249934 1152.0117765529812 424.5264871028779Q1144.3794643589983 417.3955676807624 1129.7555085128631 417.3955676807624L1129.7555085128631 417.3955676807624Q1119.727653075513 417.3955676807624 1110.479741949957 420.7103310058864Q1101.2596859783937 424.0250943310104 1094.6580144821382 429.8468215154719L1094.6580144821382 429.8468215154719L1088.2234739098387 419.20615269028394Q1096.2457582597187 412.38163996208743 1107.471385318752 408.6769044810665Q1118.724867531778 404.9721690000456 1131.148266212495 404.9721690000456L1131.148266212495 404.9721690000456ZM1126.13433849382 501.0445951206563Q1138.16776501864 501.0445951206563 1146.8028627563579 495.5292746301139Q1155.4101053400832 490.0139541395714 1159.6162335929719 479.5682713923319L1159.6162335929719 479.5682713923319L1159.6162335929719 462.32593107088854L1126.5243106497169 462.32593107088854Q1099.4491009688722 462.32593107088854 1099.4491009688722 481.18387032390496L1099.4491009688722 481.18387032390496Q1099.4491009688722 490.40392629546835 1106.468599775017 495.72426070806233Q1113.4880985811621 501.0445951206563 1126.13433849382 501.0445951206563L1126.13433849382 501.0445951206563ZM1373.0145683305766 511.26743663595465L1356.16220016503 473.77439936186306L1277.9449277537008 473.77439936186306L1261.120414742147 511.26743663595465L1245.6608042762325 511.26743663595465L1309.839079075272 370.87746051305584L1324.4908900753999 370.87746051305584L1388.6691648744395 511.26743663595465L1373.0145683305766 511.26743663595465ZM1283.3766827822653 461.74097283704316L1350.7583002904582 461.74097283704316L1317.0535639593654 386.3092158249776L1283.3766827822653 461.74097283704316ZM1490.5354630255192 511.26743663595465L1448.0284980327524 458.3147888959486L1423.1538455173263 481.18387032390496L1423.1538455173263 511.26743663595465L1408.919861827088 511.26743663595465L1408.919861827088 362.465204007279L1423.1538455173263 362.465204007279L1423.1538455173263 463.32871661462354L1486.134348694682 405.7799684658321L1503.7945163260151 405.7799684658321L1458.6691668579406 448.8997468464367L1508.0006445789036 511.26743663595465L1490.5354630255192 511.26743663595465ZM1527.861369375655 511.26743663595465L1527.861369375655 405.7799684658321L1542.095353065893 405.7799684658321L1542.095353065893 511.26743663595465L1527.861369375655 511.26743663595465ZM1535.0758542597482 382.7159009599273Q1530.6468847749188 382.7159009599273 1527.6385281437138 379.7075443287223Q1524.6301715125087 376.69918769751735 1524.6301715125087 372.4930594446289L1524.6301715125087 372.4930594446289Q1524.6301715125087 368.4819172696889 1527.6385281437138 365.47356063848395Q1530.6468847749188 362.465204007279 1535.0758542597482 362.465204007279L1535.0758542597482 362.465204007279Q1539.4769685905853 362.465204007279 1542.4853252217902 365.36214002251336Q1545.493681852995 368.25907603774783 1545.493681852995 372.2702182126878L1545.493681852995 372.2702182126878Q1545.493681852995 376.69918769751735 1542.4853252217902 379.7075443287223Q1539.4769685905853 382.7159009599273 1535.0758542597482 382.7159009599273L1535.0758542597482 382.7159009599273ZM1595.4379729617963 426.42063757437734Q1600.4519006804712 415.807823903182 1610.3683355018507 410.3760688746175Q1620.3126254772224 404.9721690000456 1634.936581323358 404.9721690000456L1634.936581323358 404.9721690000456L1634.936581323358 418.816180534387L1631.538252536256 418.6211944564385Q1614.880870448658 418.6211944564385 1605.4658283991462 428.8440359717369Q1596.0507863496343 439.0668774870353 1596.0507863496343 457.5069894301621L1596.0507863496343 457.5069894301621L1596.0507863496343 511.26743663595465L1581.7889475054033 511.26743663595465L1581.7889475054033 405.7799684658321L1595.4379729617963 405.7799684658321L1595.4379729617963 426.42063757437734ZM1697.3321262668683 404.9721690000456Q1717.9727953754136 404.9721690000456 1729.0034363564987 415.30643113131447Q1740.0340773375838 425.64069326258345 1740.0340773375838 445.89139021523175L1740.0340773375838 445.89139021523175L1740.0340773375838 511.26743663595465L1726.4129070351833 511.26743663595465L1726.4129070351833 494.83289578029786Q1721.593965394457 503.0501662081263 1712.2624888069226 507.64626661691165Q1702.9310122193888 512.2702221796897 1690.0897862287825 512.2702221796897L1690.0897862287825 512.2702221796897Q1672.4574737514422 512.2702221796897 1662.0117910042027 503.8579656739128Q1651.593963410956 495.4178540141433 1651.593963410956 481.5738424798019L1651.593963410956 481.5738424798019Q1651.593963410956 468.14765825535 1661.3154121543866 459.93038782752166Q1671.0368608978174 451.71311739969326 1692.3181985481938 451.71311739969326L1692.3181985481938 451.71311739969326L1725.800093647345 451.71311739969326L1725.800093647345 445.2785768273937Q1725.800093647345 431.6574065249934 1718.1677814533623 424.5264871028779Q1710.563324413372 417.3955676807624 1695.911513413244 417.3955676807624L1695.911513413244 417.3955676807624Q1685.883657975894 417.3955676807624 1676.6636020043306 420.7103310058864Q1667.4435460327672 424.0250943310104 1660.8140193825193 429.8468215154719L1660.8140193825193 429.8468215154719L1654.4073339642123 419.20615269028394Q1662.4296183140923 412.38163996208743 1673.6552453731256 408.6769044810665Q1684.880872432159 404.9721690000456 1697.3321262668683 404.9721690000456L1697.3321262668683 404.9721690000456ZM1692.3181985481938 501.0445951206563Q1704.3516250730136 501.0445951206563 1712.9588676567387 495.5292746301139Q1721.593965394457 490.0139541395714 1725.800093647345 479.5682713923319L1725.800093647345 479.5682713923319L1725.800093647345 462.32593107088854L1692.7081707040907 462.32593107088854Q1665.6329610232456 462.32593107088854 1665.6329610232456 481.18387032390496L1665.6329610232456 481.18387032390496Q1665.6329610232456 490.40392629546835 1672.6524598293909 495.72426070806233Q1679.6719586355357 501.0445951206563 1692.3181985481938 501.0445951206563L1692.3181985481938 501.0445951206563Z " fill="#1d1b1b" transform="matrix(0.5028637204942011,0,0,0.5028637204942011,0,80.01462447276069)"/></g></svg>